<svg width="24" height="24" viewBox="0 0 24 24" fill="none" xmlns="http://www.w3.org/2000/svg">
<g clip-path="url(#clip0_63_1138)">
<path d="M12.0002 11.4962C14.1696 11.4962 15.9345 9.7315 15.9345 7.56241C15.9345 5.39332 14.1696 3.62866 12.0002 3.62866C9.83086 3.62866 8.06592 5.39332 8.06592 7.56241C8.06592 9.7315 9.83086 11.4962 12.0002 11.4962ZM12.0002 5.03472C13.3942 5.03472 14.5283 6.16868 14.5283 7.56241C14.5283 8.95619 13.3942 10.0901 12.0002 10.0901C10.6062 10.0901 9.47217 8.95619 9.47217 7.56241C9.47217 6.16868 10.6063 5.03472 12.0002 5.03472Z" fill="#3448AD"/>
<path d="M7.71631 14.6311C8.78201 16.0738 8.35386 15.5128 11.4235 19.8953C11.7025 20.2952 12.2958 20.2971 12.5764 19.896C15.6598 15.4926 15.2356 16.0503 16.2839 14.6311C17.3459 13.1933 18.4441 11.7067 19.0459 9.9645C19.9168 7.44258 19.5403 4.94728 17.9858 2.93822C17.9858 2.93822 17.9858 2.93817 17.9857 2.93817C16.5618 1.09838 14.3241 0 12.0001 0C9.67611 0 7.43848 1.09838 6.01447 2.93827C4.45995 4.94733 4.08345 7.44267 4.95448 9.96459C5.55617 11.7067 6.65436 13.1934 7.71631 14.6311ZM7.12662 3.7987C8.28622 2.30053 10.1081 1.40606 12.0001 1.40606C13.8921 1.40606 15.714 2.30053 16.8736 3.7987L16.8735 3.79866C18.1282 5.42016 18.4276 7.44694 17.7166 9.50559C17.1851 11.0444 16.1519 12.4431 15.1527 13.7958C14.3748 14.8489 14.6076 14.5268 12.0001 18.2645C9.39532 14.5305 9.6252 14.8486 8.8475 13.7958C7.84836 12.4431 6.81518 11.0444 6.28367 9.50559C5.57267 7.44689 5.87201 5.42016 7.12662 3.7987Z" fill="#3448AD"/>
<path d="M8.29372 17.6796C8.08635 17.3514 7.6521 17.2533 7.32379 17.4607L5.32457 18.7234C4.88844 18.9988 4.88802 19.6364 5.32457 19.9121L11.6246 23.8912C11.8539 24.0361 12.1462 24.0361 12.3756 23.8912L18.6756 19.9121C19.1117 19.6367 19.1121 18.9991 18.6756 18.7234L16.6763 17.4607C16.3479 17.2533 15.9137 17.3514 15.7064 17.6796C15.499 18.0079 15.597 18.4421 15.9253 18.6494L16.9835 19.3177L12 22.4653L7.01661 19.3177L8.07477 18.6494C8.40308 18.4421 8.5011 18.0079 8.29372 17.6796Z" fill="#3448AD"/>
</g>
<defs>
<clipPath id="clip0_63_1138">
<rect width="24" height="24" fill="white"/>
</clipPath>
</defs>
</svg>
