<svg width="110" height="110" viewBox="0 0 110 110" fill="none" xmlns="http://www.w3.org/2000/svg">
<path fill-rule="evenodd" clip-rule="evenodd" d="M55.6349 11.6001C31.742 11.6001 12.3506 30.9915 12.3506 54.8845C12.3506 78.7774 31.742 98.1688 55.6349 98.1688C79.5279 98.1688 98.9193 78.7774 98.9193 54.8845C98.8616 30.9338 79.5279 11.6001 55.6349 11.6001Z" fill="white"/>
<path d="M16.1018 16.1018C26.0283 6.17524 39.7639 0 55 0C70.1784 0 83.9139 6.17524 93.8982 16.1018C103.825 26.0283 110 39.8216 110 55C110 70.1784 103.825 83.9139 93.8982 93.8982C83.9717 103.825 70.1784 110 55 110C39.8216 110 26.086 103.825 16.1018 93.8982C6.17524 83.9139 0 70.1784 0 55C0 39.7639 6.17524 26.0283 16.1018 16.1018ZM55 10.042C42.5918 10.042 31.3956 15.063 23.2581 23.2004C15.1207 31.3379 10.0997 42.5341 10.0997 54.9423C10.0997 67.3505 15.1207 78.5467 23.2581 86.6842C31.3956 94.8216 42.5918 99.8426 55 99.8426C67.4082 99.8426 78.6044 94.8216 86.7419 86.6842C94.8793 78.5467 99.9003 67.3505 99.9003 54.9423C99.9003 42.5341 94.8793 31.3379 86.7419 23.2004C78.6044 15.1207 67.3505 10.042 55 10.042Z" fill="#83BB32"/>
<path d="M21.296 21.296C29.8952 12.6969 41.8417 7.32959 55.0001 7.32959C68.1586 7.32959 80.0473 12.6391 88.7042 21.296C97.3034 29.8952 102.671 41.8417 102.671 55.0001C102.671 68.1586 97.3611 80.0473 88.7042 88.7042C80.105 97.3034 68.1586 102.671 55.0001 102.671C41.8417 102.671 29.9529 97.3611 21.296 88.7042C12.6969 80.105 7.32959 68.1586 7.32959 55.0001C7.32959 41.8417 12.6391 29.8952 21.296 21.296ZM55.0001 16.0442C44.2656 16.0442 34.5122 20.3726 27.4712 27.4712C20.4303 34.5122 16.0442 44.2079 16.0442 55.0001C16.0442 65.7346 20.3726 75.488 27.4712 82.529C34.5122 89.5699 44.2656 93.956 55.0001 93.956C65.7346 93.956 75.488 89.6276 82.529 82.529C89.5699 75.488 93.956 65.7346 93.956 55.0001C93.956 44.2656 89.6276 34.5122 82.529 27.4712C75.4303 20.4303 65.7346 16.0442 55.0001 16.0442Z" fill="#83BB32"/>
<path d="M44.3231 71.1018H42.8226L41.8415 72.4869C41.7838 72.6023 41.6683 72.7177 41.6106 72.7754C41.5529 72.8331 41.4375 72.8908 41.3798 72.9486C41.3221 73.0063 41.2644 73.0063 41.2066 73.0063C41.1489 73.0063 41.0912 73.064 40.9758 73.064H40.9181V71.044H39.5907V76.2382H40.9181V74.0451H40.9758C41.0335 74.0451 41.0912 74.0451 41.1489 74.0451C41.2066 74.0451 41.2644 74.0451 41.3221 74.1028C41.3798 74.1028 41.4375 74.1605 41.4952 74.1605C41.5529 74.2182 41.6106 74.2182 41.6683 74.2759C41.7261 74.3337 41.7838 74.3914 41.8415 74.4491C41.8992 74.5068 41.9569 74.6222 42.0146 74.6799L42.8803 76.1805H44.3808L43.4574 74.4491C43.3997 74.2759 43.2843 74.1605 43.2266 74.0451C43.1112 73.9297 43.0534 73.8142 42.938 73.7565C42.8803 73.6988 42.8226 73.6411 42.7649 73.6411C42.7072 73.5834 42.6495 73.5834 42.534 73.5257L42.4186 73.468L42.534 73.4103C42.5917 73.4103 42.6495 73.3525 42.6495 73.3525C42.7072 73.2948 42.7072 73.2948 42.7649 73.2371C42.8226 73.1794 42.8803 73.1217 42.9957 73.0063C43.0534 72.8908 43.1689 72.8331 43.2266 72.7177L44.3231 71.1018ZM47.0356 70.9863C46.2276 70.9863 45.5928 71.1018 45.2465 71.3903C44.8425 71.6789 44.6694 72.0252 44.6694 72.5446V74.7954C44.6694 74.9108 44.6694 75.0262 44.7271 75.1416C44.7271 75.2571 44.7848 75.3725 44.8425 75.4302C44.9002 75.5456 44.958 75.6033 45.0157 75.661C45.0734 75.7188 45.1311 75.7765 45.2465 75.8342C45.3042 75.8919 45.4197 75.9496 45.5351 75.9496C45.6505 76.0073 45.7659 76.0073 45.8814 76.065C45.9968 76.065 46.1122 76.1227 46.1699 76.1227C46.2853 76.1227 46.3431 76.1805 46.4585 76.1805C46.5739 76.1805 46.6316 76.1805 46.747 76.1805C46.8625 76.1805 46.9779 76.1805 47.0933 76.1805C47.3819 76.1805 47.6127 76.1804 47.9013 76.1227C48.1899 76.1227 48.4784 76.065 48.7093 76.0073H48.767V74.9685H48.7093C48.363 75.0262 48.0744 75.0839 47.8436 75.1416C47.6127 75.1993 47.3819 75.1993 47.2087 75.1993C46.6316 75.1993 46.3431 75.0839 46.1699 74.9685C45.9968 74.7953 45.9968 74.6799 45.9968 74.5645V72.4291C45.9968 72.3137 45.9968 72.1983 46.0545 72.0829C46.1122 72.0252 46.1699 71.9097 46.2853 71.9097C46.3431 71.9097 46.4008 71.852 46.4585 71.852C46.5162 71.852 46.5739 71.852 46.6316 71.852C46.6893 71.852 46.747 71.852 46.8048 71.852C46.8625 71.852 46.9779 71.852 47.0356 71.852C47.2665 71.852 47.4973 71.852 47.7859 71.9097C48.0744 71.9674 48.3053 72.0252 48.6516 72.0829H48.7093V71.044H48.6516C48.3053 70.9863 48.0167 70.9286 47.7282 70.9286C47.4973 71.044 47.2665 70.9863 47.0356 70.9863ZM53.9611 71.1018H49.4018V76.2959H50.7292V72.0829H52.6337V76.2959H53.9611V71.1018ZM57.0776 71.1018H54.9999V76.2959H56.3273V74.6222H56.9622C57.2507 74.6222 57.4816 74.6222 57.6547 74.5645C57.8856 74.5645 58.0587 74.5068 58.2318 74.4491C58.405 74.3914 58.5204 74.3337 58.6358 74.2759C58.7512 74.2182 58.8667 74.1028 58.9244 74.0451C58.9821 73.9297 59.0398 73.8142 59.0975 73.6988C59.1552 73.5834 59.1552 73.4103 59.1552 73.2371V72.256C59.1552 72.0829 59.1552 71.9674 59.0975 71.852C59.0398 71.7366 58.9821 71.6212 58.9244 71.5635C58.8667 71.448 58.7512 71.3903 58.6358 71.3326C58.5204 71.2749 58.405 71.2172 58.2318 71.1595C58.0587 71.1018 57.8856 71.1018 57.7124 71.1018C57.5393 71.1018 57.3084 71.1018 57.0776 71.1018ZM56.385 72.0829H57.0199C57.193 72.0829 57.3084 72.0829 57.4239 72.0829C57.5393 72.0829 57.6547 72.1406 57.7124 72.1406C57.7701 72.1406 57.7701 72.1983 57.8278 72.256C57.8278 72.3137 57.8856 72.3714 57.8856 72.4291V73.2371C57.8856 73.3525 57.8856 73.4103 57.8278 73.468C57.7701 73.5257 57.7701 73.5834 57.7124 73.5834C57.6547 73.5834 57.597 73.6411 57.4239 73.6411C57.3084 73.6411 57.193 73.6411 57.0199 73.6411H56.2696V72.0252H56.385V72.0829ZM63.8299 71.1018H59.8478V76.2959H63.8876V75.3148H61.1752V74.1028H63.5414V73.1217H61.1752V72.0829H63.8299V71.1018ZM66.9464 70.9863C66.1384 70.9863 65.5036 71.1018 65.1573 71.3903C64.7533 71.6789 64.5802 72.0252 64.5802 72.5446V74.7954C64.5802 74.9108 64.5802 75.0262 64.6379 75.1416C64.6379 75.2571 64.6956 75.3725 64.7533 75.4302C64.8111 75.5456 64.8688 75.6033 64.9265 75.661C64.9842 75.7188 65.0419 75.7765 65.1573 75.8342C65.215 75.8919 65.3305 75.9496 65.4459 75.9496C65.5613 76.0073 65.6767 76.0073 65.7922 76.065C65.9076 76.065 66.023 76.1227 66.0807 76.1227C66.1962 76.1227 66.2539 76.1805 66.3693 76.1805C66.4847 76.1805 66.5424 76.1805 66.6578 76.1805C66.7733 76.1805 66.8887 76.1805 67.0041 76.1805C67.2927 76.1805 67.5235 76.1804 67.8121 76.1227C68.1007 76.1227 68.3892 76.065 68.6201 76.0073H68.6778V74.9685H68.6201C68.2738 75.0262 67.9852 75.0839 67.7544 75.1416C67.5235 75.1993 67.2927 75.1993 67.1196 75.1993C66.5424 75.1993 66.2539 75.0839 66.0807 74.9685C65.9076 74.7953 65.9076 74.6799 65.9076 74.5645V72.4291C65.9076 72.3137 65.9076 72.1983 65.9653 72.0829C66.023 71.9674 66.0807 71.9097 66.1962 71.9097C66.2539 71.9097 66.3116 71.852 66.3693 71.852C66.427 71.852 66.4847 71.852 66.5424 71.852C66.6001 71.852 66.6579 71.852 66.7156 71.852C66.7733 71.852 66.8887 71.852 66.9464 71.852C67.1773 71.852 67.4081 71.852 67.6967 71.9097C67.9852 71.9674 68.2161 72.0252 68.5624 72.0829H68.6201V71.044H68.5624C68.2161 70.9863 67.9275 70.9286 67.639 70.9286C67.4081 71.044 67.1773 70.9863 66.9464 70.9863ZM71.6211 70.9863C70.8132 70.9863 70.1783 71.1018 69.832 71.3903C69.4281 71.6789 69.2549 72.0252 69.2549 72.5446V74.7954C69.2549 74.9108 69.2549 75.0262 69.3126 75.1416C69.3126 75.2571 69.3703 75.3725 69.4281 75.4302C69.4858 75.5456 69.5435 75.6033 69.6012 75.661C69.6589 75.7188 69.7166 75.7765 69.832 75.8342C69.8897 75.8919 70.0052 75.9496 70.1206 75.9496C70.236 76.0073 70.3515 76.0073 70.4669 76.065C70.5823 76.065 70.6977 76.1227 70.7554 76.1227C70.8709 76.1227 70.9286 76.1805 71.044 76.1805C71.1594 76.1805 71.2171 76.1805 71.3326 76.1805C71.448 76.1805 71.5634 76.1805 71.6788 76.1805C71.9674 76.1805 72.1983 76.1804 72.4868 76.1227C72.7754 76.1227 73.0639 76.065 73.2948 76.0073H73.3525V74.9685H73.2948C72.9485 75.0262 72.66 75.0839 72.4291 75.1416C72.1982 75.1993 71.9674 75.1993 71.7943 75.1993C71.2171 75.1993 70.9286 75.0839 70.7554 74.9685C70.5823 74.7953 70.5823 74.6799 70.5823 74.5645V72.4291C70.5823 72.3137 70.5823 72.1983 70.64 72.0829C70.6977 72.0252 70.7554 71.9097 70.8709 71.9097C70.9286 71.9097 70.9863 71.852 71.044 71.852C71.1017 71.852 71.1594 71.852 71.2171 71.852C71.2749 71.852 71.3326 71.852 71.3903 71.852C71.448 71.852 71.5634 71.852 71.6211 71.852C71.852 71.852 72.0828 71.852 72.3714 71.9097C72.66 71.9674 72.8908 72.0252 73.2371 72.0829H73.2948V71.044H73.2371C72.8908 70.9863 72.6022 70.9286 72.3137 70.9286C72.0828 71.044 71.7943 70.9863 71.6211 70.9863ZM36.4165 70.9863C36.1857 70.9863 35.9548 70.9863 35.6662 71.044C35.3777 71.1018 35.0891 71.1018 34.7428 71.1595H34.6851V72.1983H34.7428C35.0891 72.1406 35.3777 72.0829 35.6085 72.0252C35.8394 71.9674 36.0702 71.9674 36.2434 71.9674C36.4742 71.9674 36.7051 71.9674 36.8205 72.0252C36.8782 72.0252 36.9359 72.0829 37.0513 72.0829C37.1091 72.0829 37.1668 72.1406 37.2245 72.1983C37.2822 72.256 37.3399 72.3137 37.3399 72.3714C37.3399 72.4291 37.3976 72.4869 37.3976 72.6023V73.1217H35.32V74.1028H37.3976V74.7376C37.3976 74.9108 37.3976 75.3725 36.1857 75.3725C36.0125 75.3725 35.7817 75.3725 35.5508 75.3148C35.32 75.2571 35.0314 75.1993 34.6851 75.1416H34.6274V76.1805H34.6851C34.9737 76.2382 35.2623 76.2959 35.4931 76.2959C35.7817 76.2959 36.0125 76.3536 36.3011 76.3536C36.4742 76.3536 36.6474 76.3536 36.8205 76.3536C36.9936 76.3536 37.1668 76.2959 37.2822 76.2959C37.4553 76.2382 37.5708 76.2382 37.7439 76.1805C37.8593 76.1227 38.0325 76.065 38.0902 76.0073C38.1479 75.9496 38.2633 75.8919 38.321 75.8342C38.3787 75.7765 38.4364 75.661 38.4942 75.5456C38.5519 75.4302 38.6096 75.3725 38.6096 75.257C38.6096 75.1416 38.6673 75.0262 38.6673 74.9108V72.66C38.6673 72.4291 38.6673 72.256 38.6096 72.0829C38.5519 71.9097 38.4942 71.7943 38.3787 71.6789C38.2633 71.5635 38.1479 71.448 38.0325 71.3903C37.917 71.3326 37.7439 71.2749 37.5708 71.2172C37.3976 71.1595 37.2245 71.1595 36.9936 71.1595C36.9359 70.9863 36.6474 70.9863 36.4165 70.9863ZM77.2192 78.5467H30.7607C30.3567 78.5467 30.0104 78.3735 29.7219 78.1427C29.4333 77.8541 29.3179 77.5078 29.3179 77.1039V70.0629C29.3179 69.6589 29.491 69.3127 29.7219 69.0241C30.0104 68.7355 30.3567 68.6201 30.7607 68.6201H77.2192C77.6232 68.6201 77.9695 68.7933 78.2581 69.0241C78.5466 69.3127 78.662 69.6589 78.662 70.0629V77.1039C78.662 77.5078 78.4889 77.8541 78.2581 78.1427C77.9695 78.3735 77.6232 78.5467 77.2192 78.5467Z" fill="#83BB32"/>
<path d="M66.9465 40.6874C65.9654 40.6874 65.042 40.8028 64.1186 41.0336V33.2424H73.468C75.084 33.2424 76.4113 31.9151 76.4113 30.2991H61.1752V41.2068C61.1752 42.4764 61.9832 43.6307 63.1952 44.0347C63.5992 44.1501 64.0609 44.0924 64.4071 44.0347C64.4649 44.0347 64.5803 43.977 64.6957 43.977C65.3305 43.8038 66.0231 43.6884 66.7733 43.6884C66.8311 43.6884 66.9465 43.6884 67.0042 43.6884C72.0252 43.6884 76.0651 47.9591 75.7188 53.0955C75.4302 57.3663 71.9675 60.829 67.6968 61.1753C63.6569 61.4638 60.0787 59.0399 58.809 55.4617L56.1543 48.1323L54.8269 44.6118L53.788 41.7839L49.8636 29.7797C49.3442 28.3946 48.1322 27.5289 46.6894 27.4712C46.6317 27.4712 46.6317 27.4712 46.574 27.4712C45.1889 27.4712 43.9192 28.2792 43.3421 29.6066L30.8185 60.6559C30.4722 61.4061 30.8762 62.2718 31.6264 62.6181C31.7996 62.6758 32.0304 62.7335 32.2036 62.7335C32.7807 62.7335 33.3001 62.3872 33.531 61.8678L35.0892 58.1742C36.5897 55.3463 41.553 46.8049 50.2676 40.6296L50.8447 42.4187L51.8258 45.1889L55.8657 56.3851C56.8468 59.0976 58.809 61.2907 61.2907 62.6758C63.1375 63.6569 65.2728 64.1763 67.5236 64.0609C73.468 63.7146 78.2581 58.9245 78.5467 52.9801C78.9507 46.2855 73.5834 40.6874 66.9465 40.6874ZM40.4565 45.2466L46.0546 30.7608C46.17 30.4722 46.4008 30.4145 46.574 30.4145C46.6894 30.4145 46.978 30.4722 47.0357 30.7608L49.7482 39.0714C46.6894 40.7451 43.3421 42.8804 40.4565 45.2466Z" fill="#83BB32"/>
<path d="M90.2047 81.3748L93.7252 84.4912L92.9749 85.3569L92.9172 85.2992C92.8595 85.5301 92.8018 85.7032 92.6864 85.8763C92.3978 86.2226 91.9938 86.4535 91.5898 86.4535C91.1858 86.5112 90.7241 86.338 90.2624 85.9918C90.0893 85.8186 89.8007 85.5878 89.4545 85.2992C88.935 84.8375 88.4156 84.4335 88.0117 84.0872L88.7619 83.2793C89.9162 84.3181 90.6087 84.9529 90.955 85.1838C91.1281 85.3569 91.359 85.4146 91.5898 85.4146C91.763 85.4146 91.9361 85.3569 92.1092 85.1838C92.2247 85.0684 92.2247 84.8952 92.2247 84.7221L90.8396 83.4524C90.4356 83.0484 89.9739 82.7021 89.5122 82.2982L90.2047 81.3748ZM86.2226 86.7997L86.0494 87.8386C85.7609 87.7808 85.5877 87.7808 85.4146 87.8963C85.1837 88.1271 85.126 88.4157 85.2414 88.762L86.338 90.0316C86.5111 90.2048 86.8574 90.6088 87.4345 91.2436L86.5111 92.0516L83.5678 88.4734L84.3758 87.7231V87.7808C84.4912 87.4923 84.6643 87.2614 84.8375 87.0883C85.2414 86.8574 85.7031 86.742 86.2226 86.7997ZM80.6244 94.7063C80.7976 94.5909 80.9707 94.5909 81.1439 94.5909C81.317 94.6486 81.4901 94.7641 81.6056 94.9372C81.721 95.1103 81.721 95.2835 81.6633 95.4566C81.6056 95.6297 81.5478 95.8029 81.3747 95.9183C81.2016 96.0337 81.0284 96.0337 80.7976 96.0337C80.6244 95.976 80.4513 95.9183 80.3359 95.7452C80.2205 95.572 80.1627 95.3989 80.2205 95.168C80.3359 94.9949 80.4513 94.8218 80.6244 94.7063ZM76.8731 97.0726C76.9886 97.4188 76.9886 97.7651 76.8731 98.1114C76.7 98.4577 76.4692 98.7462 76.0652 98.9193C75.5457 99.0925 74.8532 99.2079 73.9875 99.1502L74.1606 97.996C74.3338 98.0537 74.5069 98.1114 74.7378 98.1114C75.0263 98.1114 75.2572 98.1114 75.4303 98.0537C75.6612 97.9382 75.7189 97.8228 75.6612 97.6497C75.5458 97.4188 75.3726 97.3034 75.0263 97.3611L74.5069 97.4188C74.2184 97.4765 73.9298 97.4188 73.6989 97.3611C73.4104 97.2457 73.1795 97.0148 73.0064 96.6686C72.8333 96.2069 72.7756 95.8029 72.9487 95.4566C73.1218 95.1103 73.3527 94.8795 73.7567 94.7063C74.4492 94.4178 75.1418 94.5332 75.7766 95.1103L74.9686 95.976C74.7378 95.6875 74.5069 95.572 74.3338 95.6875C74.1029 95.8029 73.9875 95.976 74.1029 96.2646C74.1606 96.38 74.2761 96.38 74.5069 96.3223L75.3149 96.2646C76.0652 96.1492 76.5846 96.4377 76.8731 97.0726ZM70.467 99.8428C70.5248 100.247 70.5248 100.535 70.2939 100.824C70.1208 101.17 69.7745 101.401 69.3705 101.516C68.8511 101.632 68.1586 101.632 67.2929 101.401L67.6391 100.247C67.8123 100.362 67.9854 100.42 68.2163 100.478C68.5048 100.535 68.7357 100.535 68.9088 100.478C69.1397 100.42 69.2551 100.304 69.1974 100.131C69.1397 99.9005 68.9088 99.785 68.6203 99.785H68.1008C67.8123 99.785 67.5237 99.7273 67.2929 99.6119C67.0043 99.4388 66.8312 99.2079 66.7157 98.8616C66.6003 98.3999 66.658 97.996 66.8312 97.6497C67.062 97.3611 67.3506 97.1303 67.6969 97.0148C68.4471 96.784 69.0819 97.0148 69.6014 97.7074L68.678 98.4577C68.4471 98.1114 68.274 97.9959 68.0431 98.0537C67.7546 98.1114 67.6968 98.2845 67.7546 98.5731C67.8123 98.6885 67.9277 98.7462 68.1008 98.6885L68.9088 98.7462C69.7745 98.8039 70.2362 99.1502 70.467 99.8428ZM62.445 99.9005C62.3873 99.7273 62.3296 99.5542 62.2142 99.4388C62.0987 99.3233 61.9833 99.3233 61.8102 99.3233C61.5793 99.3233 61.4062 99.4965 61.2908 99.785C61.2908 99.8427 61.2331 99.9582 61.2331 100.016L62.445 99.9005ZM63.8301 101.805C63.253 102.671 62.7336 103.132 62.1564 103.19C61.637 103.248 61.1176 103.075 60.7714 102.671C60.4251 102.324 60.2519 101.805 60.1365 101.112C60.0211 100.362 60.1365 99.785 60.4251 99.2656C60.7136 98.8039 61.1176 98.5154 61.6948 98.4577C62.2719 98.3999 62.6759 98.5731 63.0799 98.9771C63.4261 99.3811 63.5993 99.9582 63.7147 100.766C63.5416 100.766 63.3684 100.766 63.0799 100.824C62.5027 100.882 61.9256 100.997 61.2331 101.112C61.2908 101.401 61.3485 101.632 61.4639 101.863C61.637 102.151 61.8679 102.324 62.0987 102.267C62.3296 102.267 62.445 102.094 62.6182 101.805C62.7336 101.574 62.7913 101.343 62.849 101.055L63.8301 101.805ZM56.5583 99.5542L55.7504 100.189C55.5772 99.9582 55.4041 99.8428 55.2309 99.8428C54.9424 99.8428 54.7115 100.016 54.4807 100.362L54.423 102.036C54.423 102.267 54.423 102.844 54.423 103.652H53.211L53.4419 98.9771H54.5384V99.0348C54.827 98.9194 55.0578 98.8039 55.3464 98.8039C55.8081 98.9194 56.2121 99.0925 56.5583 99.5542ZM48.7672 100.766C48.8249 100.42 48.7672 100.131 48.7094 99.8428C48.6517 99.5542 48.5363 99.4388 48.4209 99.3811C48.3055 99.3811 48.19 99.381 48.0746 99.4965C47.9592 99.5542 47.9015 99.6696 47.8438 99.785L47.6129 101.112C47.6129 101.69 47.786 101.978 48.0746 102.036C48.19 102.036 48.3632 101.978 48.4786 101.747C48.594 101.459 48.7094 101.112 48.7672 100.766ZM49.8637 100.882C49.806 101.574 49.5751 102.094 49.1711 102.498C48.8249 102.844 48.4209 103.017 47.9592 102.959C47.7283 102.959 47.5552 102.844 47.3821 102.671C47.3243 102.902 47.2666 103.306 47.2089 103.883L45.997 103.709L46.8049 99.3811C46.9204 98.9194 46.9781 98.5731 46.9781 98.3422L48.0169 98.5154C48.19 98.4577 48.4209 98.3999 48.594 98.4577C49.0557 98.5154 49.402 98.7462 49.6906 99.2079C49.8637 99.6696 49.9214 100.247 49.8637 100.882ZM43.8616 97.9382L42.1302 99.3811L42.4188 100.42C42.5342 100.882 42.6496 101.228 42.7651 101.401L41.6108 101.747L41.2645 100.131L39.9371 101.228L39.1292 100.42C39.5332 100.131 39.8794 99.9005 40.2257 99.5542L40.976 98.9193L40.4566 96.7263H41.4954L41.8994 98.2268L43.169 97.188L43.8616 97.9382ZM35.955 96.3223C36.0127 96.1491 36.0127 95.976 36.0127 95.8029C35.955 95.6875 35.8973 95.572 35.7241 95.4566C35.551 95.3412 35.3201 95.3989 35.0316 95.6297C34.9739 95.6875 34.9162 95.7452 34.8584 95.8029L35.955 96.3223ZM36.1858 98.6308C35.2624 99.0925 34.5699 99.2079 34.0505 98.9771C33.5311 98.7462 33.2425 98.3422 33.1271 97.8228C33.0116 97.3034 33.1271 96.784 33.4156 96.2069C33.7042 95.5143 34.1082 95.0526 34.6276 94.7641C35.0893 94.4755 35.6087 94.4755 36.1281 94.7063C36.6475 94.9372 36.9361 95.3412 36.9938 95.8606C37.0515 96.38 36.9361 96.9571 36.6475 97.7074C36.5321 97.6497 36.3013 97.5343 36.1281 97.4188C35.6087 97.188 35.0316 96.9571 34.3967 96.6686C34.2813 96.9571 34.2236 97.188 34.2236 97.4188C34.2236 97.7651 34.339 97.996 34.5699 98.1114C34.743 98.1691 34.9739 98.1691 35.2047 97.996C35.4356 97.8228 35.6087 97.6497 35.7818 97.4765L36.1858 98.6308ZM27.8752 92.2247L28.2792 91.5899L31.1071 93.379L30.7031 94.0138L27.8752 92.2247ZM25.2782 90.6665C24.8742 91.0705 24.3548 91.359 23.8354 91.4744C23.2005 91.5899 22.6811 91.4744 22.2771 91.0705C21.9308 90.7819 21.8154 90.3779 21.8154 89.9162C21.8154 89.5122 22.0463 89.1082 22.4503 88.7042C22.5657 88.5888 22.6234 88.5311 22.7388 88.4734L23.4891 89.2814C23.4314 89.2814 23.3737 89.3391 23.2582 89.4545C23.1428 89.6276 23.0274 89.7431 22.9697 89.8585C22.912 90.0316 22.9697 90.1471 23.0851 90.2625C23.2005 90.3779 23.4314 90.3779 23.7199 90.2625C24.0085 90.1471 24.2393 89.9739 24.4702 89.7431C24.7588 89.3968 24.8742 89.1082 24.701 88.9351C24.5279 88.762 24.2971 88.7042 24.0085 88.762L23.3159 87.8963L25.913 85.7609L26.5478 86.5689L26.4324 86.6843L26.6056 86.8574C27.0673 87.3191 27.4712 87.6654 27.7598 87.8963L26.9518 88.6465C26.6056 88.358 26.2593 88.0117 25.8553 87.6654C25.7976 87.6077 25.7399 87.55 25.6244 87.3769L25.0473 87.8963C25.2205 87.954 25.3359 88.0694 25.3936 88.1271C25.7976 88.5311 25.9707 88.9351 25.9707 89.3968C25.913 89.8585 25.6822 90.2625 25.2782 90.6665ZM19.2761 84.8952C19.2184 84.7798 19.1606 84.6644 19.1029 84.5489C18.9298 84.3181 18.7567 84.2027 18.5258 84.145C18.295 84.0872 18.1218 84.145 17.9487 84.2604C17.7755 84.3758 17.7178 84.5489 17.7178 84.6644C17.7178 84.7798 17.7755 84.9529 17.891 85.1261C18.0064 85.2992 18.1795 85.3569 18.4104 85.4723L19.2761 84.8952ZM18.295 87.0883L17.6024 86.1072L17.6601 86.0495C17.487 85.934 17.3138 85.8186 17.1984 85.7032C16.9099 85.2992 16.7944 84.8952 16.7944 84.4912C16.7944 84.0295 16.9676 83.6833 17.3138 83.3947C17.7755 83.0484 18.295 82.9907 18.8721 83.1638C19.2184 83.2793 19.5646 83.5678 19.8532 83.9141C19.9109 84.0295 20.0263 84.145 20.084 84.3181C20.4303 84.0295 20.4303 83.6833 20.2572 83.3947C20.084 83.1638 19.8532 83.0484 19.6223 82.933L19.9109 82.0096C20.4303 82.2404 20.8343 82.4713 21.0652 82.8176C21.4114 83.2216 21.5269 83.6833 21.4114 84.145C21.296 84.5489 21.0652 84.9529 20.6612 85.2992C20.488 85.4146 20.3149 85.5878 20.1418 85.7032L19.6223 86.1072C19.4492 86.2226 19.1606 86.4535 18.7567 86.742C18.5258 86.9152 18.4104 87.0306 18.295 87.0883Z" fill="white"/>
<path fill-rule="evenodd" clip-rule="evenodd" d="M98.0534 71.679C97.0146 71.679 96.1489 72.5446 96.1489 73.5835C96.1489 74.6223 97.0146 75.488 98.0534 75.488C99.0923 75.488 99.9579 74.6223 99.9579 73.5835C99.9579 72.4869 99.0923 71.679 98.0534 71.679Z" fill="white"/>
<path fill-rule="evenodd" clip-rule="evenodd" d="M11.831 71.679C12.8698 71.679 13.7355 72.5446 13.7355 73.5835C13.7355 74.6223 12.8698 75.488 11.831 75.488C10.7922 75.488 9.92651 74.6223 9.92651 73.5835C9.92651 72.4869 10.7922 71.679 11.831 71.679Z" fill="white"/>
</svg>
