<svg width="49" height="60" viewBox="0 0 49 60" fill="none" xmlns="http://www.w3.org/2000/svg">
<path d="M46.6833 48.4282C46.1684 47.4087 45.4991 46.1852 44.5724 45.2676C43.8517 44.554 43.0279 43.9422 42.2042 43.3815C41.7409 43.0246 41.226 42.7188 40.7627 42.311C40.7112 42.26 35.6658 38.3347 34.8421 37.876C34.3787 37.5701 33.7609 37.1113 33.2976 36.7545C33.2461 36.5506 33.1946 36.3976 33.1431 36.2957C33.1946 36.0918 33.1946 35.9388 33.1431 35.7349C33.1946 35.7349 33.2461 35.7349 33.2976 35.7349C33.658 35.7349 33.9669 35.633 34.2243 35.4291C34.5847 35.1742 34.6876 34.6644 34.6876 34.2566C35.0995 34.3076 35.5114 34.1546 35.8203 33.8997C36.2321 33.5429 36.3866 32.9822 36.3351 32.4214C36.2836 32.1665 36.2321 31.9116 36.1292 31.7077C36.3866 31.6058 36.644 31.4019 36.7985 31.147C37.0044 30.7901 37.1074 30.3314 37.0044 29.7706C37.0044 29.6177 36.9529 29.5157 36.9014 29.3628C37.5192 29.1079 38.137 28.4452 38.137 27.7825C38.137 27.4766 38.0855 27.2218 37.9826 26.9159C39.2182 25.7434 40.7627 24.2651 41.5349 22.3789C42.0498 21.1555 41.9983 18.9125 41.7409 17.4851C41.9983 17.0263 42.2042 16.6185 42.4101 16.2107C42.9765 15.0892 43.5943 13.4579 42.7705 12.1835C42.6676 12.0306 42.5131 11.8777 42.4101 11.7757C42.6161 11.3679 42.7705 11.062 42.8735 10.7052C43.1824 9.73662 42.822 8.36024 42.1527 7.59558C42.3587 7.13679 42.5131 6.72897 42.6161 6.37213C42.8735 5.65845 43.1309 4.79184 42.925 3.92523C42.719 3.16058 42.1527 2.65081 41.4834 2.54885C41.5349 2.19201 41.5864 1.73322 41.432 1.3254C41.226 0.713679 40.5567 0.203908 39.8875 0.356839C39.4241 0.509771 39.1152 0.86661 38.9093 1.27443C38.4974 1.88615 38.137 2.59983 37.7252 3.36449V3.31351C37.6222 2.95667 37.3648 2.59983 37.0559 2.4469C37.0044 2.4469 36.9529 2.39592 36.9014 2.39592C36.9014 2.34494 36.9014 2.29397 36.9014 2.24299C36.9529 1.47833 36.4896 0.611725 35.6658 0.356839C34.9451 0.152931 34.2758 0.560748 33.9154 0.968564C33.5035 1.37638 33.2976 1.88615 33.0917 2.34494L33.0402 2.39592C31.7016 5.25064 30.0541 7.90145 27.9948 10.2974C27.8404 10.3483 27.6344 10.4503 27.5315 10.5523C27.0681 10.8581 26.7077 11.3169 26.3988 11.7247C25.987 12.2855 25.2147 13.4579 24.4425 14.5285C23.9276 15.3441 23.3613 16.1597 22.9494 16.7205C22.9494 16.6695 22.898 16.5675 22.898 16.5166V16.3636C22.8465 16.2107 22.8465 16.0578 22.8465 15.9048V15.8029C22.8465 15.599 22.8465 15.446 22.8465 15.2931C23.8761 14.3755 24.5969 13.254 25.2662 11.8777C26.0384 10.3993 26.2959 9.17587 26.1414 8.05438C25.987 6.8819 25.2662 5.70943 24.2365 4.99575C23.3098 4.33305 20.2208 2.85472 18.7793 2.70178C18.7793 2.65081 18.7793 2.59983 18.7278 2.54885V2.49788C18.6763 2.34494 18.6248 2.19201 18.5734 2.03908C17.8526 0.305862 15.6903 0.0509771 14.4547 0C12.7043 0 11.3657 0.458793 10.5934 1.3254C10.2845 1.63127 10.0786 1.98811 9.92416 2.39592C9.92416 2.4469 9.87267 2.49788 9.87267 2.59983V2.65081C9.82119 3.16058 9.76971 3.61937 9.82119 4.07817C10.0271 6.11725 11.3657 7.85047 13.1676 8.51317C13.631 8.6661 14.0943 8.76805 14.5577 8.76805C16.1536 8.76805 17.6467 7.90144 18.2645 6.62702C18.3674 6.47409 18.4189 6.27018 18.4704 6.06627C18.7278 6.01529 19.2426 5.86236 19.706 5.60748C21.096 5.35259 22.1257 5.86236 22.6405 6.16822C23.8247 6.8819 24.4425 8.05438 24.4425 8.81903C24.4425 11.8777 20.8901 12.4894 15.8962 13.305C15.3814 13.407 14.8666 13.4579 14.3517 13.5599C13.631 13.6619 12.3954 14.0187 11.9835 15.0892C11.9835 15.1402 11.932 15.1912 11.932 15.2421C11.8805 15.3441 11.8805 15.3951 11.829 15.497C11.7776 15.599 11.6746 15.65 11.5716 15.7009C11.2627 15.9048 10.9538 16.0068 10.5934 16.1597C9.82119 16.5166 9.04894 16.8224 8.63708 17.6381C8.07076 18.8105 8.84301 20.1359 9.61526 21.0025C9.71822 21.1045 9.82119 21.2574 10.0271 21.3594C10.3875 21.5123 10.7994 21.3594 11.2112 20.9006C11.5716 20.4928 12.0865 20.1359 12.7557 19.8811C13.1161 19.7281 13.425 19.6771 13.631 19.7791C13.7339 19.8301 13.8369 19.932 13.8884 20.034C14.0428 20.3398 13.7339 20.7477 13.425 20.9516C13.0646 21.2065 12.6528 21.3084 12.1379 21.2574H11.9835C11.7261 21.2065 11.4687 21.2065 11.2112 21.2574C10.8509 21.3594 10.439 21.6653 10.439 22.0731C10.439 22.9397 10.7479 23.4494 11.3657 23.6024C11.6746 23.6534 11.932 23.6534 12.1894 23.6024C12.3954 23.6024 12.6013 23.5514 12.8072 23.6024C13.5795 23.7043 14.0428 24.6729 14.0428 25.4885C14.0943 26.9669 13.2706 28.3432 12.4468 29.6686V29.6177C12.3439 29.8216 12.1894 30.0255 12.0865 30.2294C11.2627 31.6058 10.5934 33.1351 10.0786 34.6644C9.66674 35.9898 9.20339 37.672 9.71822 39.3543C9.76971 39.4562 9.82119 39.6092 9.82119 39.7111C9.92416 40.068 10.0786 40.3738 10.0271 40.7307C10.0271 40.9856 9.92416 41.1895 9.82119 41.4444C9.30636 42.8207 8.63707 44.401 7.91631 45.9813C7.24703 47.5106 6.52626 49.0909 6.01143 50.5183C5.95994 50.7222 5.85698 50.9771 5.75401 51.2319V51.2829C5.44511 52.2005 5.03324 53.424 4.62138 53.9337C4.20951 54.4435 3.59171 54.9023 3.02539 55.3101C2.87094 55.4121 2.71649 55.565 2.56204 55.667C2.51056 55.7179 2.30463 55.7689 2.20166 55.8199C1.48089 56.0748 0.296776 56.4316 0.0393591 57.5021C-0.115091 58.1138 0.193809 58.6236 0.811609 58.8785C1.01754 59.0824 1.37793 59.1844 1.84128 59.1844C2.20166 59.6432 3.02539 59.7451 3.54023 59.6941C5.03324 59.949 6.68071 59.898 8.17373 59.5922C8.27669 59.5922 8.37966 59.4902 8.43114 59.3883C9.71822 56.0238 10.9023 53.4749 11.8805 51.8437C12.0865 51.4868 12.3439 51.079 12.6013 50.6202C13.1676 49.6517 13.7854 48.5811 14.3002 47.8675C14.6606 47.3577 15.021 46.7969 15.3814 46.0833C18.9852 49.9575 26.8622 51.3339 30.0541 51.3849C30.6719 52.8632 31.5986 54.2906 32.8857 55.514C30.9808 55.3101 29.076 55.3101 27.377 55.4121C26.8107 55.4121 26.1929 55.514 25.6266 55.616L25.2147 55.667C24.288 55.8199 23.7732 56.5336 23.5158 56.9414C23.2583 57.4002 23.0524 58.0629 23.1554 58.4197C23.3613 58.9295 23.8761 59.2863 24.4425 59.2863C25.1632 59.8471 26.6048 59.949 27.377 59.949H27.5315C28.0463 60 28.6126 60 29.2304 60C30.1056 60 30.9294 59.949 31.7531 59.949L39.5271 59.6432C39.8875 59.6432 40.2478 59.5922 40.6597 59.5922C40.7627 59.5922 40.8142 59.5922 40.9171 59.5412L46.1684 59.4393C46.4773 59.4393 46.7862 59.4393 47.1466 59.3373C47.7644 59.1334 48.3307 58.6746 48.6396 57.9609C48.897 57.4511 49 56.8394 49 56.0748C49 53.373 47.8674 50.7732 46.6833 48.4282ZM1.27496 56.9414C1.01754 57.2472 0.863092 57.5531 0.708642 57.9099C0.708642 57.808 0.708642 57.757 0.708642 57.6551C0.811609 57.3492 0.966059 57.1453 1.27496 56.9414ZM41.9983 57.757C41.8438 57.2982 41.5349 56.9414 41.1745 56.6355C39.4756 54.9533 37.6222 53.373 35.6658 51.9966C35.5114 51.8946 35.3054 51.9456 35.2025 52.0476C35.0995 52.2005 35.151 52.4044 35.254 52.5064C37.1588 53.8828 39.0122 55.463 40.7112 57.0943C41.0201 57.4002 41.2775 57.6551 41.3805 57.9609C41.4834 58.2158 41.432 58.5726 41.226 58.7256C41.1231 58.7766 41.0201 58.8275 40.8656 58.8275H40.3508C40.2993 58.8275 40.2478 58.8275 40.1964 58.8785C39.9389 58.8785 39.733 58.8785 39.4756 58.9295L31.8046 59.2353C30.4145 59.2863 28.973 59.3373 27.5829 59.2353H27.4285C27.1711 59.2353 26.7592 59.1844 26.3473 59.1334C26.2444 59.0824 26.1929 59.0314 26.1929 58.9295C26.1414 58.7766 26.1414 58.5726 26.1929 58.3687C26.1929 58.2158 26.1929 58.0629 26.2444 57.9609C26.3473 57.706 26.5533 57.5021 26.8622 57.4002C27.0166 57.3492 27.2226 57.2982 27.4285 57.2982C27.5315 57.2982 27.6859 57.2982 27.8404 57.2982C27.9433 57.2982 27.9948 57.2982 28.0978 57.2472C28.1493 57.1963 28.2007 57.0943 28.2522 57.0433C28.2522 56.9414 28.2522 56.8904 28.2007 56.7884C28.1493 56.7375 28.0463 56.6865 27.9948 56.6865C27.48 56.6355 27.0681 56.6355 26.7077 56.7884C26.2444 56.9414 25.8325 57.2982 25.6781 57.757C25.6266 57.9609 25.5751 58.1648 25.5751 58.3687C25.5751 58.5726 25.5751 58.7766 25.5751 58.9805C25.1632 58.8785 24.8543 58.6746 24.7514 58.4707C24.7514 58.4707 24.7514 58.4197 24.7514 58.3178C24.9058 57.6041 25.5236 56.9924 26.1929 56.7375C26.3473 56.6865 26.4503 56.4826 26.3988 56.3297C26.3473 56.2277 26.2959 56.1767 26.1929 56.1257C26.6048 56.0748 27.0166 56.0238 27.4285 55.9728C29.4363 55.9218 31.5986 55.8709 33.7609 56.2277C33.8639 56.3297 33.9669 56.3297 34.1213 56.2787C34.3787 56.3297 34.5847 56.3806 34.8421 56.4316H34.8936C35.8717 57.2982 36.7985 57.808 37.7766 57.9609C37.9826 58.0119 38.2915 57.9099 38.4459 57.706C38.5489 57.5531 38.4974 57.3492 38.3944 57.2472C38.343 57.1963 38.24 57.1453 38.1885 57.1453C38.0855 57.1453 38.034 57.1453 37.9311 57.1963C37.8796 57.2472 37.8281 57.2982 37.8281 57.3492C36.1807 57.0943 34.8936 55.667 33.8124 54.3415C32.7313 53.0161 31.7531 51.6907 31.4442 50.1614C31.2383 48.938 31.4957 47.6126 32.2164 46.593C32.9372 45.5735 34.0184 44.8088 35.254 44.554C35.8718 44.401 36.541 44.401 37.3133 44.503C38.8578 44.6559 40.3508 45.2167 41.6379 46.0323C41.7923 46.1342 41.9983 46.0833 42.1012 45.9303C42.1527 45.8794 42.1527 45.7774 42.1527 45.6754C42.1527 45.5735 42.1012 45.5225 41.9983 45.4715C40.6082 44.554 39.0122 43.9932 37.3648 43.7893C36.541 43.6873 35.7688 43.7383 35.0995 43.8913C33.7095 44.1971 32.4224 45.0127 31.5986 46.2362C31.4442 46.4911 31.2897 46.746 31.1353 47.1028C30.9294 47.5616 30.8779 47.7655 30.8779 47.8675C30.6719 48.6831 30.6205 49.5497 30.7234 50.3144C31.0323 51.9966 32.062 53.424 33.1946 54.8003C33.4006 55.0552 33.658 55.3611 33.9154 55.667C32.2679 54.2396 31.0838 52.5574 30.4145 50.7732L30.363 50.6712L29.8997 50.7222C25.884 50.6202 18.6248 48.887 15.5873 45.4715C16.3081 44.1971 16.9774 42.9227 17.5437 41.6992C17.5952 41.5463 17.5437 41.3424 17.3892 41.2404C17.2348 41.1895 17.0289 41.2404 16.9259 41.3934C15.9477 43.4834 14.8151 45.5225 13.528 47.4596C13.0132 48.2243 12.3439 49.3458 11.829 50.2634L11.7776 50.3144C11.5201 50.7222 11.3142 51.13 11.1083 51.4868C10.1301 53.1181 8.99746 55.667 7.71037 58.9805C6.42329 59.2353 5.03324 59.2863 3.74616 59.0824C3.74616 58.6236 3.95209 58.1138 4.31248 57.706C4.72434 57.2472 5.23918 56.9414 5.80549 56.8904C5.90846 56.8904 5.95994 56.8394 6.01143 56.7884C6.06291 56.7375 6.11439 56.6355 6.11439 56.5336C6.11439 56.3297 5.95994 56.2277 5.75401 56.2277C5.03324 56.2787 4.31248 56.6865 3.79764 57.2982C3.38578 57.808 3.12836 58.4197 3.07688 59.0314C2.71649 59.0314 2.30463 58.8785 2.20166 58.7766C2.20166 58.7766 2.15018 58.6746 2.30463 58.4197C2.71649 57.5531 3.59171 56.9924 4.46693 56.4316L4.82731 56.1767C5.39363 55.8199 5.90846 54.9533 6.21736 54.4945C6.47478 54.0867 11.0568 43.7893 12.3954 39.915C12.4468 39.8131 12.3954 39.7111 12.3439 39.6602C11.5716 38.3348 11.2627 37.2133 11.3657 36.1937C11.4687 35.1232 12.2924 33.9507 13.425 33.7978C13.528 33.7978 13.5795 33.7468 13.631 33.6958C13.6824 33.6449 13.7339 33.5429 13.6824 33.441C13.6824 33.339 13.631 33.288 13.5795 33.237C13.6824 33.1861 13.631 33.1861 13.528 33.1861C11.9835 33.339 11.0053 34.8683 10.8509 36.1937C10.7479 37.3152 11.0568 38.5387 11.8805 39.915C10.439 44.0442 5.95994 53.9337 5.80549 54.2396C5.39363 54.9533 4.93027 55.514 4.62138 55.7179C4.51841 55.7689 4.41544 55.8709 4.31248 55.9218L4.26099 55.9728C3.33429 56.5845 2.40759 57.1963 1.89276 58.2158C1.84128 58.3687 1.78979 58.4707 1.73831 58.6236C1.37793 58.6236 1.32644 58.5217 1.32644 58.5217C1.32644 58.5217 1.27496 58.4707 1.37793 58.2668C1.73831 57.2982 2.61353 56.6355 3.54023 55.9218C4.15803 55.463 4.77583 55.0042 5.23918 54.4435C5.75401 53.8318 6.16587 52.6083 6.47478 51.5888C6.57774 51.2829 6.62923 51.028 6.73219 50.8241C7.24703 49.4478 7.91631 47.8675 8.58559 46.3891V46.3382C9.25488 44.8088 9.97564 43.2285 10.4905 41.8012C10.5934 41.4953 10.6964 41.2404 10.7479 40.8836C10.7994 40.4248 10.6449 40.017 10.4905 39.5582C10.439 39.4562 10.439 39.3543 10.3875 39.2523C9.92416 37.774 10.336 36.1937 10.7479 34.9703C11.2627 33.4919 11.8805 32.0136 12.7043 30.6882C12.8072 30.4843 12.9617 30.2804 13.1161 30.0255C13.9913 28.5981 14.8666 27.1708 14.8151 25.4885C14.7636 24.367 14.1458 23.1436 13.0132 22.9907C12.7557 22.9397 12.4983 22.9907 12.2409 22.9907C11.9835 22.9907 11.7776 23.0416 11.5716 22.9907C11.4687 22.9907 11.2112 22.8887 11.1598 22.124C11.1598 22.0731 11.3142 21.9711 11.4172 21.9201C11.5716 21.8692 11.7776 21.9201 11.9835 21.9201H12.1379C12.7557 21.9711 13.3735 21.8692 13.8369 21.5123C14.4032 21.1555 14.8666 20.4418 14.5577 19.7791C14.4547 19.4732 14.2488 19.2693 13.9399 19.1674C13.5795 19.0144 13.0646 19.0654 12.5498 19.2693C11.7776 19.5752 11.1598 19.983 10.7479 20.4928C10.542 20.7477 10.3875 20.7986 10.336 20.7986C10.2845 20.7986 10.2331 20.6967 10.1816 20.6457C9.76971 20.1869 9.46081 19.7281 9.30636 19.3203C9.35784 19.2693 9.46081 19.2693 9.51229 19.2184C9.56377 19.2184 9.56378 19.2184 9.61526 19.2184C9.87267 19.2184 10.1816 19.2693 10.439 19.1164C10.8509 18.9125 11.1598 18.4027 11.0053 17.9439C10.9538 17.842 10.8509 17.74 10.7479 17.74C10.439 17.689 10.0786 17.791 9.82119 17.9949C9.61526 18.1478 9.46081 18.3517 9.30636 18.5047L9.25487 18.6066L9.20339 18.6576C9.20339 18.4537 9.25488 18.2498 9.35784 18.0459C9.61526 17.4851 10.2845 17.1793 10.9538 16.9244C11.3142 16.7715 11.6746 16.6185 11.9835 16.4146C12.1379 16.3127 12.2924 16.2107 12.4468 16.0068C12.5498 15.8539 12.6013 15.7519 12.6528 15.599C12.6528 15.548 12.7043 15.497 12.7043 15.4461C13.0132 14.6814 14.0428 14.4265 14.6091 14.3246C15.124 14.2226 15.5873 14.1716 16.0507 14.0697H16.1536C21.4564 13.1521 25.2662 12.5404 25.2662 8.92099C25.2662 7.79949 24.391 6.47409 23.1554 5.70943C22.6405 5.40357 21.8168 4.99575 20.7357 4.99575C20.6327 4.74087 20.6842 4.63891 20.6842 4.58794C20.7357 4.33305 20.6327 4.12914 20.4782 3.87426C21.8168 4.38403 23.3098 5.14868 23.8761 5.5565C24.7514 6.16822 25.3692 7.13679 25.5236 8.15633C25.6781 9.12489 25.4206 10.2464 24.6999 11.6228C24.288 12.4894 23.7732 13.356 23.1039 14.1206C23.1039 13.8148 23.0524 13.5089 22.9494 13.2031C22.898 13.1011 22.8465 13.0501 22.7435 12.9992C22.6405 12.9482 22.5376 12.9482 22.4861 12.9992C21.7138 13.407 20.7871 13.6109 19.9119 13.6619C19.7575 13.6619 19.603 13.6619 19.4486 13.6619H19.3971C19.1397 13.6619 18.8823 13.6619 18.6248 13.6619C18.007 13.7128 17.4407 13.8658 16.8744 14.1206C16.7714 14.1716 16.72 14.2226 16.72 14.3246C16.6685 14.4265 16.6685 14.4775 16.72 14.5794C16.7714 14.7324 16.9774 14.8343 17.1833 14.7324C17.6467 14.5285 18.1615 14.3755 18.6763 14.3755C18.9337 14.3755 19.1912 14.3755 19.4486 14.3755C19.603 14.3755 19.809 14.3755 19.9634 14.3755C20.7871 14.3246 21.6624 14.1716 22.4346 13.8148C22.4861 14.3755 22.3316 14.9873 21.9198 15.497C21.4564 16.0578 20.7357 16.3636 19.9119 16.4146C19.6545 16.4146 19.3456 16.4146 19.0367 16.4146L17.7496 16.3636C17.6467 16.3636 17.5952 16.3636 17.4922 16.4656C17.4407 16.5166 17.3892 16.6185 17.3892 16.7205C17.3892 16.9244 17.5437 17.0773 17.6981 17.0773L18.9852 17.1283C19.2941 17.1283 19.603 17.1793 19.9119 17.1283C20.7871 17.0773 21.6109 16.7205 22.1772 16.1597V16.2107L22.2287 16.5675C22.2287 16.6695 22.2802 16.8224 22.2802 16.9244C22.2802 17.0263 22.3316 17.0773 22.3316 17.1793L22.3831 17.2812C22.3831 17.3832 22.4346 17.4342 22.4346 17.5361C22.4861 17.74 22.5891 17.9439 22.6405 18.1478C22.8465 18.6066 23.0524 19.0654 23.2583 19.4223C23.3613 19.6262 23.4643 19.7791 23.5672 19.983C23.6702 20.1359 23.7732 20.3398 23.8761 20.5438C23.9791 20.6967 24.0821 20.9006 24.1336 21.0535L24.288 21.0025H24.2365C24.4425 21.4104 24.5969 21.7162 24.6999 22.0221C24.6999 22.0731 24.6999 22.124 24.7514 22.175C24.7514 22.226 24.8028 22.328 24.8028 22.3789C24.7514 22.7358 24.6999 23.0926 24.6999 23.3985C24.5969 24.3161 24.4939 25.2336 24.0821 25.9983C23.3098 27.4766 21.5594 28.2413 20.0149 28.904C19.809 29.0059 19.4486 29.1589 19.2941 29.4138C19.1397 29.6177 19.0882 29.8216 19.0882 29.9745C18.9337 30.9431 18.9337 31.9116 18.9337 32.8802C18.9337 33.1351 18.9337 33.441 18.9852 33.6958C18.9852 33.8997 18.9337 34.1546 18.9337 34.4095C18.8823 34.8173 18.8308 35.2761 18.8823 35.633C18.8823 35.8369 18.9337 36.0408 19.0367 36.2447C18.8308 37.0603 18.6763 38.0799 18.6763 38.7935C18.6763 39.1504 18.7278 39.5072 18.8823 39.8641C19.0367 40.1699 19.3971 40.4758 19.8604 40.4758C19.9119 40.4758 19.9119 40.4758 19.9634 40.4758C20.2723 40.4248 20.5812 40.1699 20.8901 39.7111C21.0446 39.915 21.199 40.068 21.3535 40.1699C21.5594 40.3738 21.8683 40.6287 22.2287 40.6797C22.4861 40.7307 22.7435 40.5268 22.898 40.3738C22.9494 40.3229 23.0009 40.2719 23.0524 40.2209C23.1554 40.3738 23.3098 40.5268 23.4643 40.6287C23.6702 40.8326 23.9791 41.0365 24.288 41.0365H24.3395C24.8543 40.9856 25.2147 40.6797 25.4206 40.068C25.6781 40.2719 25.9355 40.3738 26.2444 40.3738C26.6048 40.3738 27.0681 40.1699 27.3255 39.7111C27.377 39.7621 27.4285 39.8131 27.48 39.8131C27.9948 40.1189 28.5611 40.2209 29.076 40.017C29.4878 39.8641 29.7452 39.5582 29.8482 39.2014C30.0027 39.2014 30.1056 39.2014 30.2086 39.2014C30.569 39.1504 30.9294 38.8955 31.1868 38.4877C31.3412 38.2328 31.3927 37.9779 31.3927 37.723C31.4957 37.723 31.5472 37.723 31.6501 37.723C32.062 37.6721 32.4739 37.4681 32.7828 37.1623C32.8342 37.1623 32.8342 37.2133 32.8857 37.2133C33.3491 37.5701 34.2758 38.2328 34.3273 38.2328C34.3787 38.2838 39.3726 42.0051 40.4538 42.8207C40.9171 43.1776 41.432 43.5344 41.9468 43.8913C42.719 44.452 43.5428 45.0127 44.2121 45.6754C45.0873 46.5421 45.7051 47.7145 46.2199 48.6831C47.404 50.9771 48.4852 53.424 48.4852 56.0748C48.4852 56.7375 48.3822 57.2982 48.1763 57.706C47.9188 58.2158 47.5585 58.5726 47.0951 58.7256C46.8377 58.7766 46.5803 58.7766 46.3229 58.8275L42.1527 58.8785C42.1527 58.5217 42.1012 58.0629 41.9983 57.757ZM24.0821 58.2158C24.0821 58.2668 24.0306 58.3687 24.0306 58.4197C23.9276 58.3687 23.8761 58.2668 23.8247 58.1648C23.8247 58.1138 23.8761 57.706 24.1336 57.2982C24.3395 56.9924 24.7514 56.4316 25.3692 56.3297L25.781 56.2787C25.781 56.2787 25.781 56.2787 25.8325 56.2787C24.9573 56.5845 24.288 57.3492 24.0821 58.2158ZM37.5192 5.50552C38.137 4.02719 38.7548 2.70178 39.4241 1.58029C39.5786 1.3254 39.7845 1.01954 39.9904 0.968564C40.2993 0.86661 40.6082 1.17247 40.7112 1.47833C40.8656 1.88615 40.7627 2.34494 40.6597 2.75276C39.5786 6.98386 36.9014 10.5523 34.5332 13.6619C34.4817 13.6109 34.3787 13.6109 34.3273 13.6109C34.4817 13.254 34.6362 12.8972 34.5847 12.4894C34.5332 11.9796 34.2243 11.4189 33.6065 11.3679L36.3866 7.44265C36.7985 6.83093 37.2618 6.16822 37.5192 5.50552ZM26.9651 38.4367C26.4503 37.723 26.0899 37.0093 25.9355 36.3466C26.1414 36.3466 26.3473 36.2957 26.5533 36.1937C26.8622 36.0408 27.1196 35.7349 27.1711 35.3781C27.2226 35.9898 27.377 36.5506 27.5315 37.0093C27.6344 37.4172 27.7889 37.876 28.0978 38.2328C28.2522 38.3857 28.4067 38.5387 28.5096 38.6406C28.7156 38.7935 28.9215 38.9465 29.076 39.0484C29.0245 39.2523 28.9215 39.3543 28.7156 39.4562C28.4582 39.5582 28.0463 39.5072 27.7374 39.3033C27.48 39.0484 27.2226 38.7426 26.9651 38.4367ZM21.302 37.0603C21.3535 37.0093 21.4049 36.9584 21.4564 36.8564C21.6624 37.0093 21.9198 37.0603 22.1772 37.1113C22.2287 37.9779 22.3316 38.8445 22.6405 39.5582C22.6405 39.6092 22.5891 39.7621 22.4346 39.8641C22.3316 39.966 22.2802 39.966 22.2802 40.017C22.1257 39.966 21.9713 39.8641 21.8168 39.6602C21.6109 39.4562 21.4049 39.3033 21.302 39.0484C21.0446 38.6406 20.9416 38.0799 20.9416 37.2642C21.0446 37.2642 21.1475 37.1623 21.302 37.0603ZM23.6702 36.6015C23.7217 36.6015 23.7217 36.6525 23.7732 36.6525C23.7732 37.5191 24.2365 38.3348 24.5454 38.9465C24.6484 39.1504 24.7514 39.3033 24.8543 39.4562C24.6999 40.068 24.5454 40.3229 24.2365 40.3229C24.1336 40.3229 23.9791 40.2209 23.8247 40.068C23.0009 39.3543 22.8465 38.1308 22.795 37.0093C23.1554 37.0093 23.4643 36.8054 23.6702 36.6015ZM24.6484 36.8564C24.9058 36.8564 25.1117 36.7035 25.3177 36.5506C25.5236 37.2642 25.884 38.0289 26.4503 38.7935C26.5533 38.9465 26.6562 39.0484 26.7592 39.2014C26.7077 39.6092 26.3473 39.7111 26.2444 39.7111C25.781 39.7111 25.4206 39.1504 25.1632 38.6916C24.9058 38.1818 24.5454 37.5191 24.4939 36.9074C24.5454 36.8564 24.5969 36.8564 24.6484 36.8564ZM28.2007 36.8054C28.0463 36.2957 27.8918 35.7859 27.8918 35.2252C28.0463 35.1742 28.1493 35.1232 28.3037 35.0212C28.4582 34.9193 28.6126 34.7664 28.7156 34.6644C28.8185 34.9703 28.973 35.2761 29.076 35.48C29.3334 35.9898 29.5393 36.4996 29.9512 36.9584C30.1571 37.2133 30.466 37.4172 30.7234 37.5191C30.7749 37.723 30.7234 37.9779 30.6205 38.1818C30.5175 38.3857 30.3116 38.5387 30.1571 38.5896C29.8482 38.6406 29.4878 38.4877 29.076 38.1308C28.973 38.0289 28.8185 37.9269 28.7156 37.825C28.4067 37.5191 28.3037 37.1623 28.2007 36.8054ZM20.0149 37.3662C20.0664 37.3662 20.1693 37.4172 20.2208 37.4172C20.2208 38.0289 20.3238 38.5896 20.4782 38.9975C20.2208 39.5582 19.9634 39.8131 19.8604 39.8131C19.706 39.8131 19.5515 39.7111 19.4486 39.5582C19.3456 39.3543 19.2941 39.0994 19.2941 38.7935C19.2941 38.3348 19.3456 37.672 19.5001 37.0603C19.6545 37.2133 19.809 37.3152 20.0149 37.3662ZM36.0777 20.2379C36.0777 20.5947 36.0777 20.9516 35.9747 21.3084C35.8718 21.6143 35.7173 21.9711 35.5629 22.277C35.3569 22.6338 35.151 23.0416 34.9965 23.4494L34.9451 23.5004C34.7391 23.8573 34.5847 24.2141 34.3787 24.5709C34.2758 24.5709 34.1213 24.52 34.0184 24.52C33.9669 24.52 33.9154 24.52 33.8639 24.52C33.7094 24.2141 33.555 23.9082 33.2976 23.7043C34.0698 22.6338 34.7906 21.5633 35.4599 20.4928C35.6143 20.2379 35.7688 19.983 35.8718 19.6771C35.8718 19.6262 35.9232 19.5752 35.9232 19.5242C35.9232 19.5752 35.9747 19.5752 35.9747 19.6262C36.0777 19.8301 36.0777 20.034 36.0777 20.2379ZM35.7688 25.0297C35.5114 24.9278 35.3054 24.8258 35.048 24.7239C35.2025 24.418 35.3569 24.1122 35.5114 23.8063C35.7173 23.3985 35.9747 22.9397 36.1807 22.5319C36.2836 22.3789 36.3351 22.175 36.4381 22.0221C36.5925 21.9711 36.747 22.0221 36.8499 22.0731C37.0044 22.175 37.1074 22.3789 37.1588 22.5828C37.2618 23.1436 37.0044 23.7043 36.6955 24.3161L36.2321 25.2336C36.0777 25.1827 35.9232 25.1317 35.7688 25.0297ZM30.9808 30.9431C30.9294 31.045 30.9294 31.198 30.9808 31.2999C31.0838 31.5038 31.0323 31.7587 30.8779 31.9116C30.7234 32.0646 30.4145 32.0136 30.2601 31.8607H30.2086C30.1571 31.8097 30.1056 31.8097 30.1056 31.8097H30.0541C30.0027 31.8097 29.8997 31.8097 29.8482 31.8097C29.7967 31.8097 29.7452 31.8607 29.6938 31.9116V31.9626C29.6423 32.0136 29.6423 32.0646 29.6423 32.1156V32.1665C29.6938 32.6253 29.6938 33.0331 29.4878 33.339C29.3849 33.4919 29.2304 33.5939 29.0245 33.6449C28.973 33.6449 28.87 33.6449 28.7671 33.5939C28.7156 33.5429 28.6641 33.5429 28.6126 33.4919H28.5611C28.5096 33.4919 28.4582 33.4919 28.4067 33.4919L28.3552 33.5429C28.3037 33.5939 28.3037 33.5939 28.2522 33.6449V33.6958C28.2522 33.7468 28.2007 33.7978 28.2007 33.8488V33.8997C28.2522 34.2056 28.0463 34.4605 27.7889 34.6134C27.5829 34.7664 27.2226 34.8683 26.9651 34.7154C26.8622 34.6644 26.7077 34.6644 26.6048 34.7154C26.5018 34.7664 26.4503 34.9193 26.4503 35.0722C26.5018 35.3271 26.3473 35.633 26.1414 35.7349C25.987 35.8369 25.8325 35.8369 25.6781 35.7859C25.6266 35.7349 25.5236 35.6839 25.4721 35.6839C25.4721 35.6839 25.4721 35.6839 25.4206 35.633C25.3177 35.531 25.1632 35.531 25.0603 35.582C24.9573 35.633 24.8543 35.7859 24.8543 35.8879C24.8543 36.0918 24.6999 36.2957 24.4939 36.2957C24.391 36.2957 24.3395 36.2957 24.185 36.2447C24.1336 36.2447 24.0306 36.1937 24.0306 36.1937C23.9276 36.1427 23.8247 36.0408 23.6702 35.9898C23.5672 35.9388 23.4643 35.8879 23.4128 35.9388C23.3098 35.9388 23.2583 36.0408 23.2069 36.1427C23.0524 36.4996 22.6405 36.6015 22.3316 36.6015C22.0227 36.6015 21.6109 36.4996 21.4564 36.1427C21.3535 35.9898 21.199 35.9388 21.0446 35.9898C20.8901 36.0408 20.7871 36.2447 20.8901 36.3976C20.9416 36.4996 20.8901 36.6525 20.7871 36.7035C20.6327 36.8564 20.4268 36.9584 20.2208 36.8564C19.7575 36.7035 19.5515 36.1427 19.5515 35.6839C19.5001 35.3781 19.5515 35.0212 19.603 34.6134C19.7575 34.7154 19.9634 34.7664 20.1179 34.7154C20.2208 34.7154 20.3753 34.6644 20.4782 34.6134C20.6842 34.8683 20.9931 35.0212 21.302 35.0722C21.5594 35.1232 21.8168 35.0722 22.0227 34.9703C22.3831 35.1232 22.795 35.1232 23.2069 34.9703C23.5672 34.8173 23.8761 34.5624 24.0306 34.2056C24.4425 34.2566 24.8543 34.1037 25.1632 33.7978C25.4721 33.5429 25.6266 33.237 25.7295 32.9312C25.987 32.9312 26.2444 32.8802 26.4503 32.7273C26.7077 32.5743 26.8622 32.3704 26.9137 32.1156C27.274 32.1665 27.6859 32.0646 28.0463 31.8097C28.3552 31.6058 28.6126 31.2999 28.6641 30.9431C28.7671 30.9431 28.87 30.9431 28.973 30.9431C29.3849 30.8921 29.7967 30.5862 30.0027 30.2294C30.2086 29.7706 30.2086 29.3118 30.1056 28.904C30.1571 28.904 30.2086 28.853 30.2601 28.853C30.6205 28.7001 30.9294 28.2923 30.9808 27.8845C31.0323 27.6296 30.9808 27.3747 30.9808 27.1708C30.9808 26.9159 30.9294 26.712 30.9808 26.5081C31.0323 26.3551 31.1353 26.1512 31.2383 25.9983C31.3412 25.8454 31.3927 25.6924 31.4957 25.5395C31.6501 25.1827 31.6501 24.7749 31.4957 24.52C31.7016 24.367 31.8561 24.2141 31.9075 23.9082C31.9075 23.9082 31.9075 23.9082 31.9075 23.8573C32.165 23.8573 32.3709 23.9082 32.5768 24.0612C32.6283 24.1122 32.6798 24.1122 32.7313 24.1631L32.7828 24.2141C33.0402 24.418 33.2461 24.7239 33.3491 25.0807V25.1317C33.3491 25.2336 33.4006 25.2846 33.4006 25.3866C33.452 25.6415 33.4006 25.9473 33.3491 26.2022L33.1946 27.4766C33.1431 27.7315 33.1431 28.0374 32.9887 28.2413C32.8857 28.3942 32.7313 28.4962 32.5768 28.4452C32.4224 28.3942 32.2679 28.4452 32.2164 28.5472C32.1135 28.6491 32.1135 28.802 32.165 28.955C32.2679 29.1079 32.6283 29.7706 32.3709 30.2294C32.165 30.6372 31.7016 30.8921 31.2897 30.8411C31.1868 30.7901 31.0323 30.8411 30.9808 30.9431ZM35.3054 19.4732C35.2025 19.7281 35.048 19.932 34.8936 20.1869C34.2243 21.2574 33.555 22.328 32.7828 23.3475C32.5253 23.2455 32.2679 23.1436 32.0105 23.1436C32.0105 23.0926 32.062 23.0416 32.062 22.9907C32.1135 22.9397 32.1135 22.8377 32.165 22.7867C32.2164 22.6848 32.3194 22.5319 32.3709 22.3789C32.4739 21.9711 32.3194 21.5633 32.165 21.2574C33.452 20.1869 34.1213 18.7596 34.7391 17.3832L34.9451 16.9244C35.254 17.1283 35.4084 17.5361 35.4599 17.8929C35.5629 18.4537 35.5114 18.9635 35.3054 19.4732ZM34.5332 16.2617C34.4817 16.3127 34.4302 16.3636 34.4302 16.4656V16.5166C34.3787 16.5675 34.3787 16.6695 34.3273 16.7205L34.1213 17.1283C33.5035 18.4027 32.9372 19.7281 31.8046 20.6457C31.6501 20.3398 31.4957 20.034 31.3412 19.7791C31.5986 19.3713 31.7016 18.8615 31.5986 18.3517C31.5472 18.1478 31.4957 17.9949 31.3927 17.791C32.4224 16.7715 33.2976 15.548 34.0184 14.2226C34.1213 14.2226 34.2243 14.2226 34.3787 14.3246C34.6362 14.5285 34.8421 14.9363 34.7906 15.3441C34.7391 15.7009 34.6362 16.0068 34.5332 16.2617ZM33.9154 12.5404C33.9154 12.8462 33.8124 13.2031 33.658 13.5089C32.9887 14.9363 32.062 16.2107 30.9808 17.2812C30.9294 17.2302 30.8779 17.2302 30.8779 17.1793C30.9808 16.8224 30.8779 16.3636 30.569 16.1088C30.363 15.9048 30.0541 15.8029 29.7452 15.8029L32.7828 12.4894C32.8342 12.4894 32.8857 12.4384 32.8857 12.3874L32.9372 12.3364C33.1946 12.0816 33.4006 11.9796 33.555 12.0306C33.7609 12.0306 33.9154 12.2855 33.9154 12.5404ZM30.1056 16.5675C30.2601 16.7205 30.2601 16.9754 30.1571 17.1283C30.1056 17.2302 30.1056 17.3322 30.1056 17.4342C30.1571 17.5361 30.2086 17.5871 30.3116 17.6381C30.6205 17.74 30.8779 18.0969 30.9808 18.4537C31.0838 18.8615 30.9808 19.2184 30.7234 19.4732C30.6205 19.5752 30.6205 19.7281 30.6719 19.8811C30.9808 20.3908 31.2897 20.9516 31.5472 21.5123C31.6501 21.7672 31.7531 22.0221 31.7016 22.175C31.7016 22.226 31.6501 22.328 31.5986 22.4299C31.5472 22.5319 31.4957 22.6338 31.4442 22.6848C31.3412 22.8887 31.3412 23.1436 31.2897 23.3475C31.2897 23.4494 31.2897 23.5514 31.2383 23.6534C31.1868 23.7553 31.1868 23.8573 30.8264 23.9592C30.7234 24.0102 30.6205 24.1122 30.6205 24.2651C30.6205 24.418 30.6719 24.52 30.8264 24.5709C30.9808 24.6219 30.9808 24.9278 30.8779 25.1827C30.8264 25.2846 30.7749 25.4376 30.6719 25.5395C30.569 25.7434 30.4145 25.9473 30.363 26.2532C30.2601 26.559 30.3116 26.8649 30.3116 27.1708C30.3116 27.3747 30.363 27.5786 30.3116 27.7315C30.3116 27.8845 30.1571 28.0884 30.0027 28.1393L29.6423 28.0884H29.5908C29.5393 28.0884 29.5393 28.0884 29.4878 28.1393C29.3849 28.1903 29.3334 28.3432 29.3334 28.4962C29.4363 29.0059 29.5393 29.4647 29.3334 29.8726C29.2304 30.0255 29.0245 30.1784 28.8185 30.2294C28.7156 30.2294 28.6126 30.2294 28.5611 30.1274C28.4582 30.0255 28.3037 29.9745 28.1493 30.0255C27.9948 30.0765 27.9433 30.2294 27.9433 30.3823C27.9948 30.7392 27.7889 30.9941 27.5315 31.147C27.3255 31.2999 26.9651 31.4019 26.6562 31.2489C26.5533 31.198 26.3988 31.198 26.2959 31.2489C26.1929 31.3509 26.1414 31.4528 26.1929 31.6058C26.2444 31.7587 26.0899 31.9116 25.987 32.0136C25.8325 32.1156 25.6781 32.1665 25.5236 32.0646C25.4206 31.9626 25.2662 31.9626 25.1632 32.0646C25.0603 32.1155 25.0088 32.2685 25.0088 32.4214C25.0603 32.6763 24.9573 32.9822 24.6999 33.1861C24.4425 33.39 24.1336 33.4919 23.8761 33.39C23.7732 33.339 23.6702 33.339 23.5672 33.441C23.4643 33.4919 23.4128 33.5939 23.4128 33.6958C23.4128 33.9507 23.2069 34.1546 22.898 34.2566C22.6405 34.3585 22.3316 34.3585 22.1257 34.2056C22.0742 34.1546 21.9713 34.1037 21.9198 34.1037H21.8683C21.7653 34.1037 21.6624 34.1546 21.6109 34.2566C21.5594 34.3585 21.4049 34.3076 21.3535 34.3076C21.1475 34.2566 20.8901 34.1037 20.8386 33.9507C20.7871 33.7978 20.6842 33.6958 20.5812 33.6958H20.5297C20.4268 33.6958 20.3238 33.7468 20.2723 33.8488C20.2208 33.8997 20.1693 33.9507 20.0664 33.9507C19.9634 33.9507 19.8604 33.8997 19.7575 33.7978C19.603 33.6449 19.603 33.288 19.603 32.8802C19.603 31.9626 19.603 30.9941 19.7575 30.0765C19.7575 29.9745 19.809 29.8726 19.8604 29.7706C19.9119 29.6686 20.0664 29.5667 20.2723 29.5157C21.8168 28.853 23.7732 28.0374 24.6999 26.3042C25.1632 25.3866 25.2662 24.418 25.3692 23.4494C25.4206 23.1436 25.4206 22.8377 25.4721 22.5319L25.5236 22.124C25.5236 22.0221 25.5751 21.8692 25.5751 21.7672C26.0384 19.8811 27.4285 18.3517 28.7156 16.9754L29.1274 16.5166C29.2304 16.6185 29.4363 16.6185 29.5393 16.5166C29.6938 16.4146 29.9512 16.4656 30.1056 16.5675ZM29.3334 13.1011C29.3849 13.1521 29.4363 13.1521 29.4878 13.2031L29.5393 13.254C29.6423 13.305 29.6938 13.407 29.7452 13.5089C29.9512 13.8658 30.0027 14.3246 29.9512 14.6814L28.2522 16.5675C27.0681 17.893 25.6781 19.3713 25.1117 21.2065L25.0603 21.1045C25.0088 21.0025 24.9573 20.9006 24.9058 20.7986L24.8543 20.6967C24.8028 20.5947 24.7514 20.4928 24.6484 20.3398L24.4425 19.932C25.1117 18.7596 28.0463 15.0892 28.0978 15.0892C28.5611 14.4775 28.973 13.8148 29.3334 13.1011ZM31.5472 37.0603C31.1353 37.1113 30.7234 36.9074 30.363 36.4996C30.0541 36.1427 29.7967 35.633 29.5908 35.1742C29.4878 34.9703 29.3849 34.7664 29.2819 34.5115L29.1789 34.2056C29.5393 34.1546 29.8997 33.8997 30.1056 33.5939C30.1571 33.4919 30.2086 33.39 30.2601 33.237C30.5175 33.6449 30.7749 34.0527 31.0323 34.3585C31.4957 34.9193 31.959 35.3271 32.4224 35.531C32.5253 35.8879 32.5253 36.2447 32.3194 36.5506C32.165 36.8564 31.8561 37.0093 31.5472 37.0603ZM41.5864 11.7757C41.5864 11.8267 41.5349 11.8267 41.5349 11.8267C41.4319 12.0306 41.2775 12.2345 41.1745 12.4384C41.0716 12.5913 40.9686 12.7443 40.8656 12.8972C40.4538 13.5089 40.0934 14.1716 39.7845 14.8343C39.1152 16.0068 38.4459 17.2302 37.5707 18.2498C37.4677 18.3517 37.3648 18.4537 37.2618 18.5557C37.0559 18.8105 36.7985 19.0654 36.5925 19.3203C36.4896 19.1164 36.3351 18.9635 36.1292 18.8615C36.1807 18.5047 36.1807 18.1478 36.1292 17.842C36.0777 17.6381 36.0262 17.4851 35.9747 17.2812C38.3944 14.6304 40.3508 11.6737 41.7923 8.36024C42.1527 8.97196 42.3587 9.94053 42.1527 10.5523C42.0498 11.011 41.7923 11.4698 41.5864 11.7757ZM30.6719 32.6253C30.8779 32.6253 31.0838 32.5234 31.2897 32.4214C31.4442 32.3195 31.5986 32.1155 31.6501 31.9116C32.4224 32.6253 33.1946 33.339 33.9669 34.0017C34.1213 34.2566 34.0184 34.8173 33.8639 34.9193C33.658 35.0722 33.2976 35.1232 32.9372 35.0212C32.4739 34.8683 32.0105 34.5115 31.5472 33.9507C31.2897 33.5939 30.9294 33.0841 30.6719 32.6253ZM32.9887 30.4843C33.1431 30.2294 33.1431 29.9235 33.1431 29.5667C33.2461 29.6177 33.3491 29.7196 33.452 29.8216L34.4817 30.7392C34.7391 30.9941 34.9965 31.2489 35.254 31.5038C35.3054 31.5548 35.3569 31.6058 35.3569 31.6568L35.4084 31.7077C35.6143 31.9626 35.7173 32.2175 35.7173 32.4724C35.7688 32.8292 35.6658 33.1861 35.4084 33.39C35.2025 33.5939 34.7391 33.6449 34.4817 33.4919C33.658 32.8292 32.8342 32.0646 32.062 31.2999C32.4739 31.198 32.8342 30.8411 32.9887 30.4843ZM36.2321 30.7901C36.1292 30.9431 35.9747 31.096 35.7688 31.096C35.5114 30.7901 35.2025 30.4843 34.9451 30.2294L33.9154 29.3118C33.7095 29.1079 33.5035 29.0059 33.2976 28.853C33.4006 28.7511 33.5035 28.6491 33.555 28.5472C33.7609 28.1903 33.8124 27.8335 33.8639 27.5276V27.3747C34.3273 27.5786 35.151 27.9354 35.4084 28.1903C35.7173 28.4962 35.9747 28.853 36.1292 29.2608C36.1292 29.2608 36.1292 29.3118 36.1807 29.3628V29.4138C36.2321 29.5667 36.2836 29.7706 36.3351 29.9235C36.3866 30.2804 36.3351 30.5862 36.2321 30.7901ZM36.6955 28.7511C36.4896 28.3432 36.2321 27.9864 35.9232 27.6805C35.5629 27.3747 34.7391 27.0178 34.1728 26.763L34.0184 26.712L34.0698 26.3042C34.1213 25.9983 34.1728 25.6415 34.1213 25.3356C34.1213 25.3356 34.1213 25.3356 34.1213 25.2846C34.4817 25.2846 34.9965 25.4376 35.5114 25.6924C35.7173 25.7944 35.9232 25.8963 36.1292 26.0493C36.1292 26.0493 36.1807 26.0493 36.1807 26.1003L36.2321 26.1512L36.2836 26.2022C36.4896 26.3551 36.6955 26.4571 36.8499 26.61C37.2618 26.9669 37.4677 27.4766 37.4677 27.8845C37.4677 28.0884 37.0559 28.5472 36.6955 28.7511ZM37.6222 26.3551C37.5192 26.2532 37.4163 26.1512 37.3133 26.0493C37.1588 25.8963 37.0044 25.7434 36.747 25.6415L37.2618 24.6729C37.4677 24.2651 37.7252 23.7043 37.8281 23.1436C39.1152 21.6653 40.1964 20.1359 41.1745 18.5047C41.329 19.7281 41.2775 21.3084 40.9171 22.226C40.1964 23.9082 38.8063 25.2336 37.6222 26.3551ZM37.7252 22.175C37.6222 21.9201 37.4677 21.7162 37.2618 21.5633C37.1074 21.4613 36.9014 21.3594 36.644 21.3594C36.6955 21.0535 36.747 20.7477 36.747 20.4928C36.8499 19.8811 37.3133 19.4223 37.7766 18.9635C37.8796 18.8615 37.9826 18.7596 38.0855 18.6066C39.0637 17.5361 39.733 16.2617 40.4023 15.0382C40.7627 14.4265 41.0716 13.7638 41.4834 13.1521C41.5864 12.9992 41.6894 12.8462 41.7409 12.6933C41.8438 12.5404 41.9468 12.3874 41.9983 12.2345C42.0498 12.2855 42.1012 12.3364 42.1527 12.3874C42.7705 13.407 42.2042 14.8343 41.7409 15.8029C40.6597 18.1478 39.3211 20.1869 37.7252 22.175ZM35.6658 16.6695C35.5629 16.5166 35.4084 16.4146 35.254 16.3127C35.3569 16.0068 35.4599 15.7009 35.4599 15.4461C35.5114 14.9363 35.3569 14.4265 35.0995 14.1206C37.4677 11.011 40.1449 7.49363 41.2775 3.21155C41.7409 3.26253 42.1012 3.56839 42.2557 4.12914C42.4101 4.79184 42.2042 5.50552 41.9468 6.16822C40.5567 10.0425 38.4459 13.6109 35.6658 16.6695ZM35.8203 7.08581L32.4224 11.9286C32.3709 11.9796 32.3194 12.0306 32.2679 12.0816L30.569 13.9167C30.5175 13.6109 30.4145 13.356 30.2601 13.1011C30.2086 13.0501 30.2086 12.9992 30.1571 12.9482C32.4224 10.2464 34.4817 7.28972 36.1807 4.18012C36.4381 3.7723 36.5925 3.41546 36.747 3.05862C36.8499 3.1096 37.0044 3.31351 37.0559 3.51742C37.4163 4.68989 36.5925 5.96432 35.8203 7.08581ZM35.6143 3.87426C33.9154 6.93288 31.9075 9.83857 29.6423 12.4894C29.6423 12.4894 29.5908 12.4894 29.5908 12.4384C30.0541 11.215 29.7452 10.6032 29.3334 10.3483C29.2304 10.2464 29.076 10.1954 28.973 10.1954C30.8264 7.85047 32.4224 5.35259 33.658 2.65081L33.7095 2.59983C33.9154 2.19201 34.1213 1.73322 34.4302 1.37638C34.7391 1.01954 35.2025 0.86661 35.5629 0.968564C36.0777 1.1215 36.2836 1.68224 36.2836 2.19201C36.2321 2.75276 35.9747 3.31351 35.6143 3.87426ZM28.7671 12.6933C28.4067 13.4579 27.9948 14.0697 27.5315 14.6304C27.4285 14.7833 24.9573 17.791 24.0306 19.2184L23.7217 18.6576C23.6702 18.5557 23.6187 18.4537 23.5672 18.3517L23.5158 18.2498C23.4643 18.0969 23.4128 17.9949 23.3098 17.842C23.3098 17.791 23.2583 17.74 23.2583 17.689V17.6381C23.7217 17.0263 24.4425 15.9558 25.0603 14.9873C25.781 13.9167 26.5533 12.7443 26.9651 12.1835C27.2226 11.8267 27.5315 11.4189 27.8918 11.164C27.9948 11.113 28.0978 11.062 28.2007 11.011C28.2522 11.011 28.3037 11.011 28.3552 10.9601C28.5096 10.9091 28.7671 10.8581 28.9215 11.011C29.3849 11.215 29.076 12.0306 28.7671 12.6933ZM20.0149 4.48598C20.0149 4.63891 19.809 4.79184 19.5515 4.94478C19.2941 4.99575 18.9852 5.09771 18.7278 5.19966C18.7793 5.04673 18.7793 4.8938 18.7793 4.74087C18.8308 4.435 18.8823 3.97621 18.8823 3.56839C20.0149 4.07817 20.0149 4.435 20.0149 4.48598ZM10.542 3.00765C13.0132 2.90569 15.6903 2.90569 18.1615 3.00765C18.213 3.56839 18.1615 4.12914 18.11 4.63891C18.007 5.19966 17.9041 5.76041 17.6981 6.27018C16.9774 7.69754 15.021 8.41122 13.425 7.85047C11.8805 7.28972 10.7479 5.76041 10.542 3.97621C10.439 3.61937 10.4905 3.31351 10.542 3.00765ZM14.4032 0.713679H14.5062C15.5873 0.713679 17.4407 0.968564 18.007 2.29397C16.72 2.24299 15.4329 2.19201 14.1458 2.19201C13.0132 2.19201 11.8805 2.19201 10.7994 2.24299C10.9023 2.03908 11.0053 1.88615 11.1598 1.73322C11.7776 1.07052 12.9102 0.713679 14.4032 0.713679Z" fill="#489FDF"/>
<path d="M14.1457 17.3322C14.4546 17.1793 14.6605 16.9244 14.7635 16.5676C15.1754 16.5676 15.5357 16.5166 15.9476 16.4146C16.1021 16.3637 16.2565 16.2107 16.205 16.0068C16.1535 15.8539 15.9991 15.701 15.7932 15.7519C14.9179 15.9558 13.9912 15.9049 13.1675 15.65C13.0131 15.599 12.8586 15.65 12.7556 15.8029C12.5497 16.2107 12.6012 16.7205 12.9101 17.0773C13.116 17.2812 13.4249 17.4342 13.7338 17.4342C13.8368 17.4342 13.9912 17.4342 14.1457 17.3322ZM14.0427 16.5676C13.9912 16.6695 13.9398 16.7205 13.8368 16.7715C13.6823 16.8224 13.4764 16.8224 13.322 16.6695C13.2705 16.6185 13.219 16.5166 13.219 16.4146C13.5279 16.4656 13.7853 16.5166 14.0427 16.5676Z" fill="#489FDF"/>
<path d="M27.6861 19.9825C27.5831 20.0335 27.5316 20.0845 27.4802 20.1354C27.4287 20.2374 27.4287 20.2884 27.4802 20.3903C27.892 21.7157 27.995 23.1431 27.6861 24.5704L27.5831 25.0292C27.1713 26.7624 26.2446 28.3427 25.009 29.4642C23.8763 30.4838 22.0229 31.4014 20.4784 30.6367C20.3755 30.5857 20.324 30.5857 20.221 30.6367C20.118 30.6877 20.0666 30.7387 20.0151 30.7896C19.9121 30.9426 20.0151 31.1465 20.1695 31.2484C20.6329 31.4523 21.1477 31.6053 21.714 31.6053C22.9496 31.6053 24.3397 30.9935 25.4723 29.974C26.7594 28.8015 27.7376 27.2722 28.2009 25.488L28.3039 25.0292C28.6643 23.398 28.6128 21.7157 28.098 20.1864C28.0465 20.0335 27.8405 19.9315 27.6861 19.9825Z" fill="#489FDF"/>
<path d="M16.1539 20.2379C16.2054 19.6771 15.948 18.9125 14.3005 18.4537C14.1461 18.4027 13.9401 18.5047 13.8886 18.6576C13.8372 18.8105 13.9401 19.0144 14.0946 19.0654C14.6094 19.2183 15.4846 19.5242 15.4331 20.085C15.3817 20.6457 14.5579 21.2574 14.4035 21.3084C14.3005 21.3084 14.249 21.3594 14.1461 21.4104C14.0946 21.4613 14.0431 21.5633 14.0431 21.6652C14.0431 21.8692 14.1975 21.9711 14.4035 21.9711C14.9183 21.9711 16.0509 21.1555 16.1539 20.2379Z" fill="#489FDF"/>
<path d="M19.9633 22.6847C20.3752 22.5827 20.993 22.1239 21.3019 21.5632C21.5078 21.1554 21.6623 20.4927 21.1989 19.6771C20.9415 19.2692 20.4267 19.0653 20.0148 19.2183C19.9119 19.2183 19.8604 19.3202 19.8089 19.3712C19.7574 19.4731 19.7574 19.5241 19.7574 19.6261C19.8089 19.728 19.8604 19.779 19.9119 19.83C20.0148 19.881 20.0663 19.881 20.1693 19.83C20.3237 19.779 20.5297 19.881 20.5811 20.0339C20.8386 20.4417 20.89 20.8495 20.6841 21.2573C20.5811 21.5122 20.3752 21.6652 20.2208 21.8181C20.2208 21.2573 19.9119 20.5946 19.3455 19.9829C19.2941 19.9319 19.1911 19.881 19.1396 19.881C19.0366 19.881 18.9852 19.881 18.8822 19.9829C18.8307 20.0339 18.7792 20.1358 18.7792 20.1868C18.7792 20.2888 18.7792 20.3398 18.8822 20.4417C19.5 21.1044 19.7059 21.7161 19.5515 22.1749C19.4485 22.4808 19.1911 22.6847 18.9852 22.8376C18.9852 22.4808 18.9337 22.1239 18.7792 21.7671C18.7792 21.7671 18.3674 20.9005 17.9555 20.6966C17.8525 20.6456 17.801 20.6456 17.6981 20.6966C17.5951 20.7476 17.5436 20.7985 17.5436 20.9005C17.4921 21.0025 17.4921 21.0534 17.5436 21.1554C17.5951 21.2573 17.6466 21.3083 17.7496 21.3083C17.8525 21.3593 18.1614 21.8181 18.2129 22.022C18.4188 22.4808 18.4188 22.8376 18.3159 23.1945C18.2644 23.2454 18.2644 23.2964 18.2644 23.3474C18.2129 23.4494 18.1614 23.5003 18.1099 23.5513C17.9555 23.7552 17.7496 23.8572 17.5951 23.9081C17.5951 23.6023 17.5951 23.1945 17.4407 22.8376C17.2347 22.3279 16.9258 22.022 16.514 21.8181C16.411 21.7671 16.3595 21.7671 16.2565 21.8181C16.1536 21.8691 16.1021 21.92 16.0506 22.022C15.9991 22.1239 15.9991 22.1749 16.0506 22.2769C16.1021 22.3788 16.1536 22.4298 16.2565 22.4808C16.5654 22.5827 16.7199 22.8886 16.8229 23.0925C16.9773 23.5003 16.9773 23.9591 16.9258 24.163C16.8743 24.214 16.8229 24.265 16.8229 24.316C16.6684 24.5199 16.4625 24.6728 16.2565 24.7748C16.0506 24.8257 15.7932 24.8767 15.4843 24.7238C15.3813 24.6728 15.3298 24.6728 15.2269 24.7238C15.1239 24.7748 15.0724 24.8257 15.0209 24.8767C14.918 25.0296 15.0209 25.2335 15.1754 25.3355C15.4328 25.4375 15.6902 25.5394 15.9476 25.5394C16.1536 25.5394 16.308 25.4884 16.4625 25.4375C16.8229 25.3355 17.1318 25.0806 17.3892 24.7238C17.7496 24.6728 18.3159 24.4179 18.6763 24.0101C18.7792 23.9081 18.8307 23.8062 18.9337 23.6533C19.0366 23.5513 19.6544 23.1945 19.9633 22.6847Z" fill="#489FDF"/>
</svg>
